<svg width="36" height="36" viewBox="0 0 36 36" fill="none" xmlns="http://www.w3.org/2000/svg">
<g clip-path="url(#clip0_25_885)">
<path d="M35.571 18.3368C35.571 16.8619 35.4513 15.7856 35.1923 14.6694H18.3504V21.3264H28.2362C28.037 22.9808 26.9607 25.4722 24.5689 27.1463L24.5354 27.3692L29.8605 31.4945L30.2294 31.5313C33.6177 28.4021 35.571 23.7979 35.571 18.3368Z" fill="#4285F4"/>
<path d="M18.3504 35.8763C23.1936 35.8763 27.2595 34.2818 30.2294 31.5313L24.5689 27.1463C23.0541 28.2027 21.0211 28.9402 18.3504 28.9402C13.6068 28.9402 9.58066 25.811 8.14547 21.486L7.9351 21.5038L2.39797 25.7891L2.32556 25.9904C5.27536 31.8501 11.3345 35.8763 18.3504 35.8763Z" fill="#34A853"/>
<path d="M8.14547 21.4859C7.76678 20.3698 7.54762 19.1738 7.54762 17.9382C7.54762 16.7023 7.76678 15.5065 8.12554 14.3904L8.11551 14.1527L2.50899 9.79858L2.32556 9.88584C1.1098 12.3175 0.412201 15.0481 0.412201 17.9382C0.412201 20.8282 1.1098 23.5587 2.32556 25.9903L8.14547 21.4859Z" fill="#FBBC05"/>
<path d="M18.3504 6.93604C21.7187 6.93604 23.9908 8.39102 25.2864 9.60691L30.3489 4.66392C27.2398 1.77389 23.1936 0 18.3504 0C11.3345 0 5.27536 4.02609 2.32556 9.88585L8.12555 14.3904C9.58066 10.0653 13.6068 6.93604 18.3504 6.93604Z" fill="#EB4335"/>
</g>
<defs>
<clipPath id="clip0_25_885">
<rect width="36" height="36" fill="white"/>
</clipPath>
</defs>
</svg>
